# xmcd
#
# Track frame offsets:
#	150
#	15549
#	34766
#	53983
#	70685
#	89054
#	108314
#	125498
#	140368
#	158592
#	175174
#	187941
#
# Disc length: 2698 seconds
#
# Revision: 1
# Processed by: cddbd v1.4PL0 Copyright (c) Steve Scherf et al.
# Submitted via: EasyCDDAExtractor 5.0.7
#
DISCID=990a880c
DTITLE=Lee Kernaghan - Three Chain Road
DYEAR=1900
DGENRE=Country
TTITLE0=The Outback Club
TTITLE1=Three Chain Road
TTITLE2=She's My Ute
TTITLE3=Dust On My Boots
TTITLE4=The Burning Heart
TTITLE5=Cause I'm Country
TTITLE6=Collingullie Station
TTITLE7=Leave Him In The Longyard
TTITLE8=Southern Son
TTITLE9=Back To The Shack
TTITLE10=Cobar Line
TTITLE11=Western Stars
EXTD=
EXTT0=
EXTT1=
EXTT2=
EXTT3=
EXTT4=
EXTT5=
EXTT6=
EXTT7=
EXTT8=
EXTT9=
EXTT10=
EXTT11=
PLAYORDER=
